<svg width="209" height="238" viewBox="0 0 209 238" fill="none" xmlns="http://www.w3.org/2000/svg">
<path d="M59.6874 0.171692V29.8862H89.4019V30.7777C38.8872 37.9091 0.258301 81.5895 0.258301 133.887C0.258301 191.236 46.9101 237.888 104.259 237.888C161.608 237.888 208.26 191.236 208.26 133.887C208.26 120.516 205.289 108.035 200.831 96.7439L173.791 108.035C177.06 116.653 178.545 124.973 178.545 134.184C178.545 175.487 145.562 208.471 104.259 208.471C62.956 208.471 29.9728 175.487 29.9728 134.184C29.9728 92.881 62.956 59.8979 104.259 59.8979C113.174 59.8979 121.791 61.3836 130.408 64.6522L140.511 36.7206C133.677 34.3434 126.545 33.1548 119.116 31.9662V30.1834H148.831V0.468837H59.6874V0.171692ZM208.26 34.6405C208.26 34.6405 99.802 118.138 94.1562 123.784C88.5105 129.727 88.5105 138.344 94.1562 144.287C99.802 150.23 108.716 150.23 114.659 144.287C120.602 138.344 208.557 34.6405 208.557 34.6405H208.26Z" fill="black"/>
</svg>
